<?xml version="1.0" encoding="utf-8"?>
<!-- Generator: Adobe Illustrator 25.4.1, SVG Export Plug-In . SVG Version: 6.00 Build 0)  -->
<svg version="1.1" id="Warstwa_1" xmlns="http://www.w3.org/2000/svg" xmlns:xlink="http://www.w3.org/1999/xlink" x="0px" y="0px"
	 viewBox="0 0 592 138.2" style="enable-background:new 0 0 592 138.2;" xml:space="preserve">
<g>
	<path d="M59.3,103.2c-4.3,0-8.5-0.7-12.7-2c-4.2-1.3-8-3.3-11.3-6c-3.3-2.7-6.1-6.1-8.2-10.3C25,80.7,24,75.8,24,70
		c0-2.6,0.2-5.1,0.5-7.7c0.4-2.6,0.9-5.1,1.6-7.7c-4.1-1-7.8-2.3-11-3.9C12,49.2,9.3,47.4,7,45.4c-2.3-2-4-4-5.2-6.2
		C0.6,37,0,34.8,0,32.6c0-3.8,1.2-7.4,3.5-10.7c2.3-3.3,5.1-6.1,8.2-8.5c3.2-2.4,6.4-4.2,9.7-5.6s5.9-2.1,7.8-2.1
		c1.6,0,2.3,0.5,2.3,1.5c0,0.6-0.2,1.1-0.7,1.5c-0.5,0.4-1.1,0.9-1.9,1.5c-1,0.7-2.1,1.6-3.4,2.7c-1.2,1.1-2.4,2.3-3.5,3.8
		c-1.1,1.5-2,3.3-2.7,5.3c-0.7,2.1-1.1,4.5-1.1,7.3c0,3,0.8,6,2.3,9c1.5,3,4.4,5.4,8.7,7.2c2.6-6.2,5.9-12.1,9.9-17.6
		c4.1-5.5,8.4-10.4,13.2-14.5c4.7-4.2,9.5-7.4,14.5-9.9c5-2.4,9.7-3.6,14-3.6c2.7,0,5.3,0.6,7.7,1.9c2.4,1.3,4.5,2.9,6.2,4.8
		c1.7,1.9,3.1,4,4.1,6.2c1,2.2,1.5,4.3,1.5,6.2c0,3.6-1.3,7.5-3.9,11.8c-2.6,4.3-6.3,8.3-11.1,12.1c-4.8,3.7-10.6,6.9-17.4,9.5
		c-6.8,2.6-14.5,3.9-22.9,4.1c-1.1,4.7-1.6,9.3-1.6,13.8c0,8.8,1.8,15,5.3,18.8c3.5,3.8,8.6,5.7,15.1,5.7c2.5,0,4.9-0.4,7.4-1.2
		c2.5-0.8,4.9-1.9,7.2-3.3s4.5-3,6.5-4.9c2-1.9,3.8-3.9,5.3-6c0.1-0.3,0.3-0.6,0.7-1c0.2-0.2,0.5-0.4,0.8-0.6
		c0.4-0.2,0.8-0.3,1.2-0.3c0.8,0,1.5,0.3,2.1,0.8c0.5,0.5,0.8,1.2,0.8,1.9c0,0.4-0.1,0.7-0.2,1c-0.1,0.3-0.3,0.7-0.5,1
		c-0.2,0.4-0.4,0.8-0.5,1.2c-1.6,2.4-3.5,4.7-5.8,7C86.6,93,84,95.1,81,96.9c-3,1.9-6.3,3.4-9.9,4.5
		C67.4,102.6,63.5,103.2,59.3,103.2z M82.3,9.3c-3,0-6.2,1.1-9.5,3.2c-3.3,2.1-6.5,5-9.7,8.6c-3.2,3.6-6.1,7.8-8.8,12.5
		c-2.7,4.7-5,9.7-6.9,14.9c6.2-0.2,11.8-1.4,16.8-3.8c5-2.3,9.2-5.2,12.7-8.6c3.5-3.4,6.1-7,7.9-10.8c1.8-3.8,2.7-7.4,2.7-10.7
		c0-1.6-0.5-2.8-1.4-3.8C85.4,9.8,84.1,9.3,82.3,9.3z"/>
	<path d="M159.7,83.7c-2,3.2-4.2,6-6.7,8.5c-2.1,2.1-4.6,4-7.5,5.8c-2.9,1.7-6,2.6-9.4,2.6c-3.8,0-7.1-1-9.7-2.9
		c-2.6-2-4.2-4.9-4.7-8.7c-1.8,2.3-3.8,4.2-5.9,5.9c-1.8,1.5-3.9,2.8-6.2,4c-2.3,1.2-4.8,1.8-7.4,1.8c-1.8,0-3.6-0.3-5.3-1
		c-1.7-0.7-3.2-1.7-4.4-2.9c-1.2-1.3-2.2-2.8-2.9-4.5c-0.7-1.7-1.1-3.7-1.1-5.8c0-4.9,0.9-9.8,2.8-14.7c1.9-4.8,4.3-9.2,7.3-13.1
		c3-3.9,6.4-7,10.1-9.4c3.7-2.4,7.5-3.6,11.2-3.6c2.7,0,5.1,0.3,7,1s3.5,1.4,4.7,2.3c1.4,1,2.5,2.1,3.3,3.2c1,0,2.1,0.1,3.2,0.3
		c1.1,0.2,2.2,0.6,3.2,1.1c1,0.5,1.8,1.2,2.4,2c0.6,0.8,1,1.8,1,3c0,1-0.4,2.6-1.2,4.9c-0.8,2.3-1.7,4.8-2.7,7.6
		c-1,2.8-1.9,5.7-2.7,8.6c-0.8,3-1.2,5.6-1.2,7.9c0,1.1,0.3,2,1,2.7c0.7,0.7,1.6,1.1,2.8,1.1c1.8,0,3.6-0.6,5.4-1.8
		c1.8-1.2,3.4-2.6,4.7-4.1c1.6-1.6,3.2-3.6,4.5-5.9c0.1-0.3,0.3-0.6,0.7-1c0.2-0.2,0.5-0.4,0.8-0.6c0.4-0.2,0.8-0.3,1.2-0.3
		c0.7,0,1.4,0.3,2,0.8c0.6,0.5,0.9,1.2,0.9,1.9c0,0.4-0.1,0.7-0.2,1c-0.1,0.3-0.3,0.7-0.5,1C160.1,82.8,159.9,83.3,159.7,83.7z
		 M128,59.5c0-2-0.5-3.5-1.4-4.5s-2.1-1.4-3.5-1.4c-2,0-4.1,1.1-6.2,3.2c-2.1,2.1-4,4.7-5.7,7.7c-1.7,3.1-3.1,6.4-4.2,9.9
		c-1.1,3.6-1.6,6.8-1.6,9.6c0,4.1,1.3,6.2,4,6.2c1.6,0,3.5-1.1,5.7-3.3c2.1-2.2,4.2-4.9,6.1-8.1c1.9-3.2,3.5-6.6,4.9-10.1
		C127.3,65.2,128,62.1,128,59.5z"/>
	<path d="M173.4,100.6c-2.2,0-4.4-0.4-6.7-1.2c-2.3-0.8-4.4-1.9-6.2-3.4c-1.9-1.5-3.4-3.2-4.7-5.2c-1.2-2-1.8-4.2-1.8-6.6
		c0-1.9,0.2-4.3,0.7-7.1c0.5-2.8,1.1-5.8,1.9-9.1c0.8-3.3,1.8-6.8,2.8-10.4c1-3.7,2.2-7.3,3.4-10.8h-3.7c-0.7,0-1.1-0.4-1.1-1.2
		c0-0.7,0.4-1.7,1.3-2.9c0.9-1.2,1.8-1.8,2.8-1.8h2.7c1.4-3.7,2.7-7.2,4-10.3c1.3-3.2,2.6-5.8,3.9-8c0.4-0.7,0.9-1.3,1.5-1.8
		c0.6-0.5,1.4-0.8,2.2-0.8c1,0,2.1,0.3,3.4,1c1.2,0.6,2.4,1.4,3.5,2.3c1.1,0.9,2,1.8,2.7,2.7c0.7,0.9,1.1,1.7,1.1,2.3
		c0,0.6-0.4,2.1-1.3,4.3c-0.9,2.2-1.9,5-3.2,8.4h9.2c0.7,0,1.1,0.4,1.1,1.2c0,0.4-0.1,0.8-0.4,1.4c-0.3,0.5-0.6,1.1-1,1.6
		c-0.4,0.5-0.8,0.9-1.3,1.3c-0.5,0.4-0.9,0.5-1.4,0.5h-8.5c-1.1,3-2.2,6.2-3.4,9.6c-1.1,3.4-2.2,6.7-3.1,10
		c-0.9,3.3-1.7,6.5-2.3,9.5c-0.6,3.1-0.9,5.8-0.9,8.3c0,2.1,0.7,3.8,2.1,5.1c1.4,1.3,3,2,4.8,2c0.7,0,1.5-0.2,2.4-0.7
		c0.9-0.5,1.7-1,2.4-1.5c0.8-0.6,1.6-1.4,2.3-2.3c0.4-0.5,0.8-0.9,1.2-1.3c0.5-0.4,1-0.6,1.6-0.6c0.7,0,1.4,0.3,2.1,1
		c0.6,0.6,1,1.3,1,2.1c0,0.5-0.3,1.2-0.8,1.9c-0.3,0.4-0.5,0.7-0.7,1.1c-1.6,1.8-3.2,3.4-4.8,4.8c-1.5,1.3-3.1,2.4-5,3.4
		C177.4,100.1,175.4,100.6,173.4,100.6z"/>
	<path d="M271.5,0c4.4,0,8.5,0.8,12.3,2.3c3.8,1.6,7.1,3.7,9.9,6.4c2.8,2.7,5,6,6.6,9.7c1.6,3.7,2.4,7.9,2.4,12.3
		c0,5.1-0.6,10.4-1.8,15.9s-3,10.8-5.3,16c-2.3,5.2-5,10-8.3,14.7c-3.2,4.6-6.9,8.6-10.8,12.1c-4,3.4-8.3,6.1-12.9,8.2
		c-4.6,2-9.5,3-14.6,3c-3.9,0-7.7-0.8-11.2-2.4s-6.7-3.8-9.5-6.6c-2.7-2.8-4.9-6.1-6.5-10c-1.6-3.9-2.4-8.2-2.4-12.8
		c0-6,0.7-11.9,2.2-17.7c1.5-5.8,3.5-11.2,6-16.2c2.6-5.1,5.5-9.7,8.9-14c3.4-4.3,7-8,10.8-11c3.8-3.1,7.8-5.5,11.9-7.2
		C263.4,0.9,267.5,0,271.5,0z M275.4,7.5c-2.7,0-5.3,0.7-7.8,2.1c-2.6,1.4-4.8,3.2-6.9,5.6c-2,2.4-3.6,5.2-4.9,8.4
		c-1.2,3.2-1.8,6.6-1.8,10.3c0,2.1,0.3,4,0.8,5.7c0.5,1.7,1.3,3.1,2.2,4.3c0.9,1.2,2,2.1,3.2,2.7c1.2,0.6,2.4,1,3.6,1
		c1,0,1.7-0.1,2.1-0.3c0.4-0.2,0.8-0.3,1.2-0.3c1.1,0,1.6,0.5,1.6,1.6c0,0.5-0.2,1-0.7,1.6c-0.5,0.6-1.1,1.2-2.1,1.8
		c-0.9,0.6-2.1,1.2-3.6,1.6c-1.5,0.4-3.3,0.6-5.3,0.6c-1.8,0-3.7-0.5-5.5-1.4c-1.9-1-3.6-2.3-5.1-4c-1.5-1.7-2.7-3.8-3.7-6.2
		c-1-2.4-1.4-5-1.4-7.8c-1,2.2-1.9,4.8-2.6,7.8c-0.7,2.7-1.3,5.9-1.8,9.7c-0.5,3.8-0.8,8.2-0.8,13.4c0,4.2,0.5,7.9,1.4,11.2
		c0.9,3.3,2.1,6.1,3.6,8.3c1.5,2.2,3.2,4,5.1,5.1c1.9,1.2,3.9,1.8,5.9,1.8c3.1,0,6.1-1.1,8.9-3.2c2.8-2.1,5.5-5,7.9-8.6
		c2.5-3.6,4.7-7.8,6.8-12.7c2.1-4.8,3.8-9.9,5.2-15.3c1.4-5.3,2.5-10.8,3.3-16.4c0.8-5.6,1.2-11,1.2-16.2c0-3.9-1-6.9-3-9
		C280.3,8.6,278,7.5,275.4,7.5z"/>
	<path d="M333,86.6c0,1.6,0.4,2.7,1.2,3.6c0.8,0.8,1.9,1.2,3.3,1.2c1.8,0,3.6-0.6,5.4-1.8c1.8-1.2,3.4-2.6,4.7-4.1
		c1.6-1.6,3.2-3.6,4.5-5.9c0.1-0.3,0.3-0.6,0.7-1c0.2-0.2,0.5-0.4,0.8-0.6c0.4-0.2,0.8-0.3,1.2-0.3c0.7,0,1.4,0.3,2,0.8
		c0.6,0.5,0.9,1.2,0.9,1.9c0,0.4-0.1,0.7-0.2,1c-0.1,0.3-0.3,0.7-0.5,1c-0.2,0.4-0.4,0.8-0.5,1.2c-2,3.2-4.2,6-6.7,8.5
		c-2.1,2.1-4.6,4-7.5,5.8c-2.9,1.7-6,2.6-9.4,2.6c-2.7,0-5-0.4-7.1-1.1c-2.1-0.7-3.9-1.7-5.5-2.9c-1.6-1.2-2.7-2.7-3.6-4.3
		c-0.8-1.6-1.2-3.4-1.2-5.3c0-3,0.5-5.8,1.4-8.5c0.9-2.6,1.9-5.1,2.9-7.3c1-2.2,2-4.1,2.9-5.8c0.9-1.7,1.4-3.1,1.4-4.2
		c0-0.7-0.4-1.3-1.3-1.6c-0.9-0.4-1.8-0.7-2.8-1c-1.2-0.3-2.6-0.5-4.1-0.7c-2.6,6.7-5.2,12.1-7.5,16.4c-2.4,4.2-4.3,7.4-5.8,9.5
		c-0.2,0.3-0.5,0.7-1,1.2c-0.5,0.5-1.2,0.8-2,0.8c-0.7,0-1.4-0.3-2-0.9c-0.6-0.6-0.9-1.3-0.9-2c0-0.6,0.2-1.3,0.6-1.8
		c0.4-0.6,0.7-1.1,0.9-1.4c1.3-1.8,3.1-4.7,5.4-8.7c2.3-4,4.5-9.2,6.5-15.7c-0.9-0.6-1.7-1.5-2.3-2.5c-0.5-0.8-1.1-1.9-1.5-3.2
		c-0.5-1.3-0.7-2.8-0.7-4.5c0-1.4,0.2-2.7,0.8-3.9c0.5-1.2,1.2-2.3,2-3.2c0.8-0.9,1.7-1.6,2.6-2.2c0.9-0.5,1.8-0.8,2.6-0.8
		c0.9,0,1.9,0.3,2.9,0.8c1,0.5,1.9,1.1,2.7,1.8c0.8,0.7,1.5,1.5,2.1,2.3c0.5,0.9,0.8,1.6,0.8,2.3c0,1.8-0.3,3.3-0.9,4.5
		c-0.6,1.2-0.9,2.3-0.9,3.4c0,1,0.5,1.7,1.6,2.2c1.1,0.5,2.5,0.7,4.1,0.7c1.6,0,2.9-0.1,3.9-0.3c1-0.2,2-0.4,2.8-0.6
		c0.8-0.2,1.6-0.4,2.3-0.6c0.7-0.2,1.5-0.3,2.3-0.3c1.6,0,3,0.6,4,1.9c1,1.3,1.6,2.8,1.6,4.7c0,1.6-0.5,3.4-1.6,5.5
		c-1.1,2.1-2.2,4.5-3.5,7.1c-1.3,2.6-2.4,5.2-3.5,8C333.6,81.1,333,83.8,333,86.6z"/>
	<path d="M406.5,58.5c0,0.7-0.2,2-0.6,3.8c-0.4,1.8-1,4.1-1.6,6.9c-0.7,2.7-1.5,5.8-2.4,9.2c-0.9,3.4-1.9,7.1-3,11l-1.2,4.5
		c4.2-2.3,7.7-4.6,10.5-6.9c2.8-2.3,5.2-4.8,7.1-7.5c0.2-0.3,0.5-0.6,0.8-1c0.3-0.2,0.6-0.4,1-0.6c0.4-0.2,0.8-0.3,1.2-0.3
		c0.8,0,1.5,0.3,2.1,0.8c0.5,0.5,0.8,1.2,0.8,1.9c0,0.3-0.1,0.6-0.3,1c-0.2,0.4-0.4,0.7-0.5,1.1c-0.3,0.4-0.5,0.8-0.7,1.2
		c-1.2,1.6-2.5,3.1-3.9,4.5c-1.4,1.5-3.1,2.9-5,4.4c-1.9,1.5-4.1,2.9-6.6,4.4c-2.5,1.5-5.3,3-8.5,4.5c-1.1,4.3-2.4,8.6-3.9,12.9
		c-1.5,4.3-3.4,8.3-5.6,11.8c-2.2,3.5-4.9,6.4-8,8.6c-3.1,2.2-6.9,3.4-11.2,3.4c-2.1,0-4.1-0.3-6-1c-1.9-0.7-3.5-1.6-4.9-2.7
		c-1.4-1.1-2.5-2.5-3.4-4.1c-0.8-1.6-1.2-3.3-1.2-5.1c0-2.4,0.7-4.7,2.1-6.8c1.4-2.2,3.4-4.3,6-6.2c2.6-2,5.6-3.9,9.2-5.7
		c3.6-1.8,7.6-3.6,12-5.2c0.6-2.4,1.2-4.6,1.6-6.8c0.5-2.1,0.8-4,1.1-5.5c-1.8,2.3-3.8,4.2-5.9,5.9c-1.8,1.5-3.9,2.8-6.2,4
		c-2.3,1.2-4.8,1.8-7.4,1.8c-1.8,0-3.6-0.3-5.3-1c-1.7-0.7-3.2-1.7-4.4-2.9c-1.2-1.3-2.2-2.8-2.9-4.5c-0.7-1.7-1.1-3.7-1.1-5.8
		c0-4.9,0.9-9.8,2.8-14.7c1.9-4.8,4.3-9.2,7.3-13.1c3-3.9,6.4-7,10.1-9.4c3.7-2.4,7.5-3.6,11.2-3.6c2.7,0,5.1,0.3,7,1
		s3.5,1.4,4.7,2.3c1.4,1,2.5,2.1,3.3,3.2c1,0,2.1,0.1,3.2,0.3c1.1,0.2,2.2,0.6,3.2,1.1c1,0.5,1.8,1.2,2.4,2
		C406.2,56.3,406.5,57.3,406.5,58.5z M363.5,131c1.6,0,3-0.6,4.5-1.8c1.4-1.2,2.8-2.9,4-4.9c1.3-2,2.4-4.3,3.5-6.9
		c1-2.6,2-5.3,2.9-8c-2.6,1.5-5,3.1-7.2,4.9c-2.1,1.8-4,3.5-5.5,5.3c-1.5,1.7-2.7,3.4-3.5,4.9c-0.8,1.6-1.2,2.8-1.2,3.8
		C361,130.1,361.8,131,363.5,131z M389.8,59.5c0-2-0.5-3.5-1.5-4.5c-1-1-2.2-1.4-3.6-1.4c-2,0-4.1,1.1-6.2,3.2
		c-2.1,2.1-4,4.7-5.7,7.7c-1.7,3.1-3.1,6.4-4.2,9.9S367,81.2,367,84c0,4.1,1.3,6.2,4,6.2c1.6,0,3.5-1.1,5.7-3.3
		c2.1-2.2,4.2-4.9,6.2-8.1c2-3.2,3.6-6.6,4.9-10.1C389.1,65.2,389.8,62.1,389.8,59.5z"/>
	<path d="M484.7,83.7c-2,3.2-4.2,6-6.7,8.5c-2.1,2.1-4.6,4-7.5,5.8c-2.9,1.7-6,2.6-9.4,2.6c-3.8,0-7.1-1-9.7-2.9
		c-2.7-2-4.2-4.9-4.7-8.7c-1.8,2.3-3.8,4.2-5.9,5.9c-1.8,1.5-3.9,2.8-6.2,4c-2.3,1.2-4.8,1.8-7.4,1.8c-1.8,0-3.6-0.3-5.3-1
		c-1.7-0.7-3.2-1.7-4.4-2.9c-1.2-1.3-2.2-2.8-2.9-4.5c-0.7-1.7-1.1-3.7-1.1-5.8c0-4.9,0.9-9.8,2.8-14.7c1.9-4.8,4.3-9.2,7.3-13.1
		c3-3.9,6.4-7,10.1-9.4c3.7-2.4,7.5-3.6,11.2-3.6c2.7,0,5.1,0.3,7,1c1.9,0.7,3.5,1.4,4.7,2.3c1.4,1,2.5,2.1,3.3,3.2
		c1,0,2.1,0.1,3.2,0.3c1.1,0.2,2.2,0.6,3.2,1.1c1,0.5,1.8,1.2,2.4,2c0.6,0.8,1,1.8,1,3c0,1-0.4,2.6-1.2,4.9
		c-0.8,2.3-1.7,4.8-2.7,7.6c-1,2.8-1.9,5.7-2.7,8.6c-0.8,3-1.2,5.6-1.2,7.9c0,1.1,0.3,2,1,2.7c0.7,0.7,1.6,1.1,2.8,1.1
		c1.8,0,3.6-0.6,5.4-1.8c1.8-1.2,3.4-2.6,4.7-4.1c1.6-1.6,3.2-3.6,4.5-5.9c0.1-0.3,0.3-0.6,0.7-1c0.2-0.2,0.5-0.4,0.8-0.6
		c0.4-0.2,0.8-0.3,1.2-0.3c0.7,0,1.4,0.3,2,0.8c0.6,0.5,0.9,1.2,0.9,1.9c0,0.4-0.1,0.7-0.2,1c-0.1,0.3-0.3,0.7-0.5,1
		C485.1,82.8,484.9,83.3,484.7,83.7z M452.9,59.5c0-2-0.5-3.5-1.4-4.5s-2.1-1.4-3.5-1.4c-2,0-4.1,1.1-6.2,3.2
		c-2.1,2.1-4,4.7-5.7,7.7c-1.7,3.1-3.1,6.4-4.2,9.9s-1.6,6.8-1.6,9.6c0,4.1,1.3,6.2,4,6.2c1.6,0,3.5-1.1,5.7-3.3
		c2.1-2.2,4.2-4.9,6.1-8.1c1.9-3.2,3.5-6.6,4.9-10.1C452.3,65.2,452.9,62.1,452.9,59.5z"/>
	<path d="M527.4,100.6c-2.5,0-4.7-0.4-6.7-1.1c-2-0.7-3.8-1.7-5.3-2.9c-1.5-1.2-2.7-2.7-3.5-4.4c-0.8-1.7-1.2-3.5-1.2-5.4
		c0-2.8,0.4-5.5,1.1-8.2c0.7-2.6,1.5-5.1,2.4-7.6c0.9-2.5,1.7-4.8,2.4-7.1c0.7-2.2,1.1-4.4,1.1-6.5c0-0.6-0.3-1.2-0.8-1.6
		c-0.5-0.4-1.2-0.6-1.9-0.6c-2.1,0-4.4,1-6.8,2.9c-2.4,2-4.7,4.8-6.9,8.5c-2.1,3.7-3.9,8.2-5.3,13.4c-1.4,5.3-2.1,11.2-2.1,17.7
		c0,1.2-0.3,1.9-0.8,2.3c-0.5,0.3-1.3,0.5-2.3,0.5c-3.7,0-6.7-0.7-9.2-2.1S478,95.2,478,93c0-3.8,0.4-7.9,1.3-12.1
		c0.9-4.2,1.9-8.4,3.1-12.3c1.2-4,2.4-7.6,3.6-11c1.2-3.4,2.3-6,3.1-7.9c0.7-1.7,2-2.6,3.7-2.6c1,0,2.3,0.4,4,1.2
		c1.6,0.8,3.5,2.9,5.6,6.2c1.9-1.6,4.1-3.1,6.4-4.4c2-1.1,4.3-2.1,6.8-3c2.6-0.9,5.3-1.4,8.2-1.4c1.5,0,2.9,0.4,4.3,1.1
		c1.4,0.7,2.7,1.7,3.8,2.8c1.1,1.1,2,2.4,2.6,3.8c0.6,1.4,1,2.7,1,4.1c0,2.1-0.4,4.3-1.2,6.6c-0.8,2.3-1.6,4.7-2.5,7.2
		c-0.9,2.5-1.7,5-2.5,7.5c-0.8,2.5-1.2,5-1.2,7.5c0,1.6,0.4,2.8,1.2,3.8c0.8,1,1.8,1.4,3.2,1.4c0.7,0,1.5-0.2,2.2-0.7
		c0.7-0.5,1.5-1,2.2-1.5c0.8-0.6,1.6-1.4,2.3-2.3c0.4-0.5,0.8-0.9,1.2-1.3c0.5-0.4,1-0.6,1.6-0.6c0.7,0,1.4,0.3,2.1,1
		c0.6,0.6,1,1.3,1,2.1c0,0.5-0.3,1.2-0.8,1.9c-0.3,0.4-0.5,0.7-0.7,1.1c-1.6,1.8-3.2,3.4-4.9,4.8c-1.6,1.3-3.3,2.4-5.2,3.4
		S529.6,100.6,527.4,100.6z"/>
	<path d="M549.4,93.2c0-1.2,0.3-2.4,0.9-3.8c0.6-1.3,1.4-2.5,2.3-3.6c1-1.1,2.1-2,3.4-2.7c1.3-0.7,2.7-1.1,4-1.1
		c2.1,0,3.8,0.6,5.1,1.8c1.3,1.2,2,2.9,2,5.1c0,1.3-0.3,2.6-0.8,3.9c-0.5,1.3-1.2,2.6-2.2,3.7c-1,1.1-2.1,2.1-3.4,2.8
		c-1.3,0.7-2.8,1.1-4.3,1.1c-2.2,0-3.9-0.7-5.2-2C550,97.1,549.4,95.4,549.4,93.2z M574.8,6.3c0-1.6,1.3-2.3,3.8-2.3
		c1.1,0,2.4,0.3,3.9,1s3,1.6,4.4,2.6c1.4,1.1,2.6,2.2,3.6,3.6c1,1.3,1.4,2.6,1.4,3.9c0,0.9-0.4,2.5-1.2,4.7
		c-0.8,2.2-1.8,4.9-3.2,7.9c-1.3,3.1-2.8,6.4-4.4,10.1c-1.6,3.7-3.2,7.4-4.9,11.2c-1.7,3.8-3.3,7.5-4.9,11.2
		c-1.6,3.7-2.9,7.1-4,10.1c-0.8,2.4-2.1,4-3.8,4.8c-1.3,0.6-2.6,1.1-4,1.4c-1.4,0.3-2.4,0.4-3.1,0.4c-1.7,0-2.6-0.8-2.6-2.3
		c0-0.5,0.5-2.4,1.4-5.5c0.9-3.2,2.1-7,3.5-11.5c1.4-4.5,2.9-9.4,4.6-14.7c1.6-5.3,3.2-10.4,4.6-15.3c1.4-4.9,2.6-9.2,3.5-13.1
		C574.4,10.7,574.8,7.9,574.8,6.3z"/>
</g>
</svg>
